<svg xmlns="http://www.w3.org/2000/svg" width="307" height="306" fill="none"><g clip-path="url(#a)"><path fill="url(#b)" fill-opacity=".3" d="M133.324 163.821H82.285V306.73h51.039V163.821Zm40.831 0V306.73h51.04V163.821h-51.04Z"/><path fill="#73A2FF" d="M194.574 276.109c16.916 0 30.621-13.71 30.621-30.626 0 16.916 13.71 30.626 30.626 30.626-16.916 0-30.626 13.712-30.626 30.621 0-16.909-13.705-30.621-30.621-30.621Z"/><path fill="#0052FF" d="M225.198 245.923v60.367c-.003.146-.003.293-.003.44 0-16.909-13.705-30.621-30.621-30.621 16.916 0 30.621-13.71 30.621-30.626 0 .147 0 .294.003.44Z"/><path fill="url(#c)" fill-opacity=".3" d="M306.86 184.236h-10.208V82.158h10.208v102.078Zm-30.623 10.208h-20.416V82.158h20.416v112.286Zm20.415 40.448h-10.207V81.775h10.207v153.117Zm-40.831-91.487h-10.208V82.158h10.208v61.247Z"/><path fill="#0052FF" d="M276.247 112.782V82.158h30.613c0 16.904-13.704 30.624-30.613 30.624Zm0 0c-16.93 0-30.634-13.72-30.634-30.624h30.634v30.624Z"/><path fill="#73A2FF" d="M306.86 82.158h-61.247c0-16.904 13.704-30.623 30.634-30.623 16.909 0 30.613 13.719 30.613 30.623Z"/><path fill="url(#d)" fill-opacity=".3" d="M51.664 82.158H41.456V26.015h10.208v56.143ZM31.248 92.366H10.833v-66.35h20.415v66.35Zm10.208 20.416H31.248V26.015h10.208v86.767Zm-30.623-51.04H.625V26.016h10.208v35.727Z"/><path fill="#73A2FF" d="M8.099 7.97c9.965-9.965 26.124-9.965 36.09 0 9.965 9.966 9.965 26.124 0 36.09-9.966 9.965-26.125 9.965-36.09 0-9.965-9.966-9.965-26.125 0-36.09Z"/><path fill="#0052FF" d="M.625 26.015a25.52 25.52 0 0 0 51.04 0H.624Z"/><path fill="#fff" d="M18.927 18.797a10.208 10.208 0 1 1 14.436 14.436 10.208 10.208 0 0 1-14.436-14.436Z"/><path fill="#73A2FF" d="M51.663 163.818c-11.277 0-20.413 9.141-20.413 20.418 0-11.277-9.14-20.418-20.418-20.418 11.277 0 20.418-9.14 20.418-20.413 0 11.273 9.136 20.413 20.413 20.413ZM174.157 41.324c-11.277 0-20.413 9.141-20.413 20.418 0-11.277-9.141-20.418-20.418-20.418 11.277 0 20.418-9.14 20.418-20.413 0 11.273 9.136 20.413 20.413 20.413Z"/><path fill="url(#e)" fill-opacity=".3" d="M61.87 276.107H51.663v-30.624H61.87v30.624Zm-30.623 20.415H21.039v-51.039h10.208v51.039Zm20.416 10.208H41.455v-61.247h10.208v61.247Zm-10.208-30.623H31.247v-30.624h10.208v30.624Z"/><path fill="#73A2FF" d="M21.04 245.49h20.415v20.409c-11.27 0-20.416-9.136-20.416-20.409Zm0 0c0-11.286 9.145-20.422 20.415-20.422v20.422H21.039Zm20.415 20.409v-40.831c11.27 0 20.415 9.136 20.415 20.422 0 11.273-9.146 20.409-20.415 20.409Z"/><path fill="#73A2FF" d="M27.018 231.047c7.974-7.973 20.9-7.973 28.873 0 7.972 7.973 7.972 20.899 0 28.873-7.974 7.972-20.9 7.972-28.873 0-7.972-7.974-7.972-20.9 0-28.873Z"/><path fill="#0052FF" d="M21.04 245.483a20.417 20.417 0 0 0 34.85 14.435 20.417 20.417 0 0 0 5.98-14.435H21.04Z"/><path fill="#fff" d="M41.453 255.618a10.167 10.167 0 0 0-6.28-9.397 10.175 10.175 0 0 0-3.892-.774 10.17 10.17 0 0 0 10.172-10.172 10.174 10.174 0 0 0 6.278 9.398 10.17 10.17 0 0 0 3.892.774 10.172 10.172 0 0 0-10.17 10.171Z"/><path fill="#fff" d="M51.484 245.446H31.426a10.17 10.17 0 0 0 10.032-10.171 10.168 10.168 0 0 0 10.026 10.171Zm224.751-178.6 15.311 15.312-15.311 15.312-15.312-15.312 15.312-15.312Z"/><path fill="#0052FF" d="M153.74 235.352c39.463 0 71.455-31.991 71.455-71.455 0-39.463-31.992-71.454-71.455-71.454-39.463 0-71.455 31.991-71.455 71.454 0 39.464 31.992 71.455 71.455 71.455Z"/><path stroke="#000206" stroke-width="1.75" d="M153.74 223.792c33.121 0 59.971-26.85 59.971-59.971 0-33.121-26.85-59.971-59.971-59.971-33.121 0-59.97 26.85-59.97 59.971 0 33.121 26.849 59.971 59.97 59.971Z"/><path fill="#fff" d="M168.737 172.278c0-8.302-5.053-11.101-14.826-12.441-7.222-1.044-8.61-2.739-8.61-6.108 0-3.369 2.443-5.468 7.116-5.468 4.258 0 6.713 1.483 7.721 4.91a1.818 1.818 0 0 0 1.72 1.317h3.736a1.654 1.654 0 0 0 1.633-1.211c.066-.235.079-.482.04-.723-1.187-5.419-4.84-8.682-10.568-9.701v-5.717a1.786 1.786 0 0 0-.521-1.259 1.786 1.786 0 0 0-1.259-.52h-3.557a1.783 1.783 0 0 0-1.779 1.779v5.515c-7.116.996-11.612 5.693-11.612 11.718 0 7.793 4.745 10.817 14.659 12.157 6.749 1.103 8.67 2.562 8.67 6.392 0 3.831-3.261 6.404-7.862 6.404-6.204 0-8.303-2.715-9.002-6.238a1.812 1.812 0 0 0-1.745-1.447h-4.056a1.663 1.663 0 0 0-1.649 1.933c1.033 5.931 4.84 10.272 12.597 11.316v5.622a1.783 1.783 0 0 0 1.779 1.778h3.557a1.781 1.781 0 0 0 1.78-1.778v-5.622c7.353-1.163 12.038-6.239 12.038-12.608Z"/><path fill="#fff" d="M140.933 197.243a35.584 35.584 0 0 1 0-66.845 2.561 2.561 0 0 0 1.53-2.241v-3.321a1.695 1.695 0 0 0-.378-1.231 1.679 1.679 0 0 0-1.994-.466 42.694 42.694 0 0 0 0 81.362 1.683 1.683 0 0 0 2.229-.836c.122-.269.172-.565.143-.86v-3.321a2.559 2.559 0 0 0-1.53-2.241Zm25.248-74.103a1.683 1.683 0 0 0-2.372 1.697v3.32a2.568 2.568 0 0 0 1.53 2.241 35.58 35.58 0 0 1 23.374 33.423 35.581 35.581 0 0 1-23.374 33.422 2.377 2.377 0 0 0-1.53 2.241v3.321a1.678 1.678 0 0 0 1.512 1.84c.294.028.591-.021.86-.144a42.71 42.71 0 0 0 21.507-15.486 42.711 42.711 0 0 0 0-50.389 42.706 42.706 0 0 0-21.507-15.486Z"/></g><defs><linearGradient id="b" x1="153.74" x2="153.74" y1="163.821" y2="306.73" gradientUnits="userSpaceOnUse"><stop stop-color="#DBDBDB"/><stop offset="1" stop-color="#fff" stop-opacity="0"/></linearGradient><linearGradient id="c" x1="276.237" x2="276.237" y1="81.775" y2="234.892" gradientUnits="userSpaceOnUse"><stop stop-color="#DBDBDB"/><stop offset="1" stop-color="#fff" stop-opacity="0"/></linearGradient><linearGradient id="d" x1="26.145" x2="26.145" y1="26.015" y2="112.782" gradientUnits="userSpaceOnUse"><stop stop-color="#DBDBDB"/><stop offset="1" stop-color="#fff" stop-opacity="0"/></linearGradient><linearGradient id="e" x1="41.455" x2="41.455" y1="245.483" y2="306.73" gradientUnits="userSpaceOnUse"><stop stop-color="#DBDBDB"/><stop offset="1" stop-color="#fff" stop-opacity="0"/></linearGradient><clipPath id="a"><path fill="#fff" d="M0-.004h307v306H0z"/></clipPath></defs></svg>